<svg xmlns="http://www.w3.org/2000/svg" width="32" height="32" viewBox="0 0 24 24" fill="none" stroke="white" stroke-width="2" stroke-linecap="round" stroke-linejoin="round">
  <path d="M12 5a3 3 0 1 0-5.997.125 4 4 0 0 0-2.526 5.77 4 4 0 0 0 .52 8.23 3 3 0 1 0 5.997-.125 4 4 0 0 0 2.526-5.77 4 4 0 0 0-.52-8.23Z"/>
  <path d="M9 13a4.5 4.5 0 0 0 3-4"/>
  <path d="M6.003 5.125A3 3 0 1 0 12 5"/>
  <path d="M12 19a3 3 0 1 0 5.997-.125 4 4 0 0 0 2.526-5.77 4 4 0 0 0-.52-8.23 3 3 0 1 0-5.997.125 4 4 0 0 0-2.526 5.77 4 4 0 0 0 .52 8.23Z"/>
  <path d="M15 11a4.5 4.5 0 0 0-3 4"/>
</svg>
